<svg width="30" height="30" viewBox="0 0 30 30" fill="none" xmlns="http://www.w3.org/2000/svg">
<path d="M24.3072 15.4395H25.6137C25.8182 16.4511 26.7139 17.2151 27.7849 17.2151C29.0063 17.2151 30 16.2214 30 15C30 13.7786 29.0063 12.7849 27.7849 12.7849C26.7139 12.7849 25.8181 13.5489 25.6137 14.5605H24.3071C24.2027 12.3221 23.305 10.2875 21.889 8.73246L24.2423 6.37916C24.7056 6.71648 25.2752 6.91623 25.8908 6.91623C27.4386 6.91623 28.6978 5.65699 28.6978 4.10918C28.6978 2.56137 27.4386 1.30219 25.8908 1.30219C24.343 1.30219 23.0838 2.56143 23.0838 4.10918C23.0838 4.72482 23.2835 5.29441 23.6209 5.75766L21.2675 8.11096C19.7125 6.69498 17.6779 5.79727 15.4395 5.69285V4.38633C16.4511 4.18189 17.2151 3.28611 17.2151 2.21514C17.2151 0.993691 16.2214 0 15 0C13.7786 0 12.7849 0.993691 12.7849 2.21514C12.7849 3.28611 13.5489 4.18189 14.5605 4.38633V5.69279C12.3221 5.79727 10.2875 6.69492 8.73246 8.1109L6.37928 5.75777C6.71666 5.29447 6.91641 4.72482 6.91641 4.10918C6.91641 3.17449 6.45346 2.30408 5.67803 1.78084C5.4767 1.64514 5.20359 1.69811 5.06795 1.89932C4.93219 2.10053 4.98521 2.37363 5.18637 2.50939C5.71934 2.86898 6.03744 3.46705 6.03744 4.10918C6.03744 5.17242 5.17236 6.0375 4.10912 6.0375C3.04588 6.0375 2.18086 5.17242 2.18086 4.10918C2.18086 3.25055 2.75713 2.48736 3.58225 2.25328C3.81574 2.18701 3.95133 1.94402 3.88506 1.71053C3.81879 1.47703 3.57568 1.34162 3.34236 1.40771C2.14096 1.74861 1.30195 2.85949 1.30195 4.10918C1.30195 5.65711 2.56125 6.91641 4.10918 6.91641C4.72488 6.91641 5.29453 6.71666 5.75777 6.37928L8.11096 8.7324C6.69492 10.2874 5.79727 12.322 5.69279 14.5605H4.38633C4.18189 13.5489 3.28611 12.7848 2.21514 12.7848C0.993691 12.7849 0 13.7786 0 15C0 16.2214 0.993691 17.2151 2.21514 17.2151C3.28611 17.2151 4.18189 16.4511 4.38633 15.4395H5.69285C5.79732 17.6779 6.69498 19.7125 8.11102 21.2675L5.75766 23.6208C5.29441 23.2835 4.72482 23.0838 4.10918 23.0838C2.56137 23.0838 1.30219 24.343 1.30219 25.8908C1.30219 27.4386 2.56137 28.6978 4.10918 28.6978C5.65699 28.6978 6.91617 27.4386 6.91617 25.8908C6.91617 25.2752 6.71648 24.7056 6.3791 24.2423L8.73246 21.889C10.2875 23.305 12.3221 24.2027 14.5605 24.3071V25.6136C13.5489 25.818 12.7849 26.7138 12.7849 27.7848C12.7849 29.0063 13.7786 30 15 30C16.2214 30 17.2151 29.0063 17.2151 27.7849C17.2151 26.7139 16.4511 25.8181 15.4395 25.6137V24.3072C17.6779 24.2027 19.7125 23.3051 21.2675 21.8891L23.6207 24.2422C23.2833 24.7055 23.0836 25.2752 23.0836 25.8908C23.0836 27.4387 24.3429 28.698 25.8908 28.698C27.4387 28.698 28.698 27.4387 28.698 25.8908C28.698 25.587 28.6496 25.2877 28.5542 25.0012C28.4774 24.771 28.2284 24.6466 27.9984 24.7233C27.7681 24.8 27.6437 25.0489 27.7204 25.2792C27.7859 25.4757 27.8192 25.6816 27.8192 25.8908C27.8192 26.954 26.9541 27.8191 25.8909 27.8191C24.8276 27.8191 23.9626 26.9541 23.9626 25.8908C23.9626 24.8275 24.8276 23.9624 25.8909 23.9624C26.1342 23.9624 26.3715 24.0072 26.5962 24.0955C26.8218 24.1843 27.0771 24.0731 27.1659 23.8472C27.2547 23.6214 27.1436 23.3663 26.9177 23.2775C26.5902 23.1488 26.2448 23.0835 25.8909 23.0835C25.2752 23.0835 24.7056 23.2833 24.2423 23.6207L21.8892 21.2675C23.305 19.7125 24.2027 17.6779 24.3072 15.4395ZM27.7849 13.6638C28.5217 13.6638 29.1211 14.2632 29.1211 15C29.1211 15.7368 28.5217 16.3362 27.7849 16.3362C27.048 16.3362 26.4486 15.7368 26.4486 15C26.4486 14.2632 27.0481 13.6638 27.7849 13.6638ZM25.8908 2.18109C26.954 2.18109 27.8189 3.04605 27.8189 4.10918C27.8189 5.17236 26.9539 6.03732 25.8908 6.03732C24.8277 6.03732 23.9627 5.17236 23.9627 4.10918C23.9627 3.046 24.8277 2.18109 25.8908 2.18109ZM13.6638 2.21514C13.6638 1.47832 14.2632 0.878906 15 0.878906C15.7368 0.878906 16.3362 1.47832 16.3362 2.21514C16.3362 2.95195 15.7368 3.55137 15 3.55137C14.2632 3.55137 13.6638 2.95189 13.6638 2.21514ZM2.21514 16.3362C1.47832 16.3362 0.878906 15.7368 0.878906 15C0.878906 14.2632 1.47832 13.6638 2.21514 13.6638C2.95195 13.6638 3.55131 14.2632 3.55131 15C3.55131 15.7368 2.95189 16.3362 2.21514 16.3362ZM15 6.56109C19.6532 6.56109 23.4389 10.3468 23.4389 15C23.4389 19.6532 19.6532 23.4389 15 23.4389C10.3468 23.4389 6.56109 19.6533 6.56109 15C6.56109 10.3467 10.3468 6.56109 15 6.56109ZM4.10918 27.8189C3.046 27.8189 2.18109 26.9539 2.18109 25.8908C2.18109 24.8276 3.04605 23.9627 4.10918 23.9627C5.1723 23.9627 6.03727 24.8276 6.03727 25.8908C6.03727 26.954 5.1723 27.8189 4.10918 27.8189ZM16.3362 27.7849C16.3362 28.5217 15.7368 29.1211 15 29.1211C14.2632 29.1211 13.6638 28.5217 13.6638 27.7849C13.6638 27.048 14.2632 26.4486 15 26.4486C15.7368 26.4486 16.3362 27.0481 16.3362 27.7849Z" fill="#B99862"/>
<path d="M10.0283 20.4111H12.5101C12.5114 20.4111 12.5127 20.4113 12.5141 20.4113C12.5154 20.4113 12.5167 20.4111 12.5181 20.4111H13.9746C14.2174 20.4111 14.4141 20.2143 14.4141 19.9716C14.4141 19.7289 14.2174 19.5322 13.9746 19.5322H12.9535V18.788C12.9535 18.5453 12.7568 18.3486 12.5141 18.3486C12.2713 18.3486 12.0746 18.5453 12.0746 18.788V19.5322H10.4678V17.3677C10.4678 16.3045 11.3326 15.4394 12.3955 15.4394H17.6045C18.6674 15.4394 19.5321 16.3045 19.5321 17.3677V19.5322H17.9253V18.788C17.9253 18.5453 17.7286 18.3486 17.4859 18.3486C17.2431 18.3486 17.0464 18.5453 17.0464 18.788V19.5322H16.0254C15.7827 19.5322 15.586 19.7289 15.586 19.9716C15.586 20.2143 15.7827 20.4111 16.0254 20.4111H17.482C17.4834 20.4111 17.4846 20.4113 17.486 20.4113C17.4873 20.4113 17.4886 20.4111 17.49 20.4111H19.9717C20.2145 20.4111 20.4112 20.2143 20.4112 19.9716V17.3677C20.4112 15.8198 19.1522 14.5605 17.6046 14.5605H17.2783C17.9661 13.9381 18.399 13.0389 18.399 12.0405C18.399 10.1663 16.8743 8.6416 15.0001 8.6416C13.1259 8.6416 11.6012 10.1663 11.6012 12.0405C11.6012 13.0389 12.0341 13.9381 12.7218 14.5605H12.3956C10.848 14.5605 9.589 15.8198 9.589 17.3677V19.9716C9.58889 20.2143 9.78565 20.4111 10.0283 20.4111ZM12.48 12.0405C12.48 10.651 13.6105 9.52051 15 9.52051C16.3896 9.52051 17.52 10.651 17.52 12.0405C17.52 13.4301 16.3896 14.5605 15 14.5605C13.6105 14.5605 12.48 13.4301 12.48 12.0405Z" fill="#B99862"/>
</svg>
