<svg width="30" height="30" viewBox="0 0 30 30" fill="none" xmlns="http://www.w3.org/2000/svg">
<path d="M15 0.9375C7.23352 0.9375 0.9375 7.23352 0.9375 15C0.9375 22.7665 7.23352 29.0625 15 29.0625C22.7665 29.0625 29.0625 22.7665 29.0625 15C29.0625 7.23352 22.7665 0.9375 15 0.9375ZM23.6179 23.6179C21.481 25.7484 18.6274 27.007 15.6132 27.1485C12.599 27.29 9.64012 26.3042 7.31304 24.3833C4.98597 22.4623 3.45742 19.7438 3.02525 16.7574C2.59307 13.771 3.28823 10.7306 4.97526 8.22877C6.6623 5.72692 9.22036 3.94276 12.151 3.22396C15.0817 2.50515 18.1749 2.90319 20.8281 4.34051C23.4814 5.77782 25.5044 8.15146 26.5031 10.9989C27.5018 13.8464 27.4046 16.9636 26.2305 19.7433C25.6186 21.1918 24.7313 22.5076 23.6179 23.6179Z" fill="#B99862"/>
<path d="M15 22.5C16.6162 22.5 18.1661 21.858 19.3089 20.7152C20.4517 19.5724 21.0938 18.0224 21.0938 16.4062H8.90625C8.90625 18.0224 9.54827 19.5724 10.6911 20.7152C11.8339 21.858 13.3838 22.5 15 22.5Z" fill="#B99862"/>
<path d="M12.0561 13.3764L13.2564 11.9359L9.84374 9.09204L6.43106 11.9359L7.63141 13.3764L9.84374 11.5327L12.0561 13.3764Z" fill="#B99862"/>
<path d="M16.7436 11.9359L17.9439 13.3764L20.1562 11.5327L22.3686 13.3764L23.5689 11.9359L20.1562 9.09204L16.7436 11.9359Z" fill="#B99862"/>
</svg>
