<svg width="70" height="70" viewBox="0 0 70 70" fill="none" xmlns="http://www.w3.org/2000/svg">
<path d="M62.3247 6.0321H51.6884C51.1207 6.0321 50.6608 6.49218 50.6608 7.05966C50.6608 7.62715 51.1207 8.08722 51.6884 8.08722H62.3247C65.4237 8.08722 67.9449 10.6084 67.9449 13.7074V45.8111H56.1155C55.5479 45.8111 55.0879 46.2711 55.0879 46.8386C55.0879 47.4061 55.5479 47.8662 56.1155 47.8662H67.8491C67.3647 50.4759 65.0728 52.4588 62.3248 52.4588H35.4819C34.9142 52.4588 34.4543 52.9189 34.4543 53.4864C34.4543 54.0539 34.9142 54.5139 35.4819 54.5139H41.3618V58.5622C41.3618 58.8087 41.4503 59.0471 41.6114 59.2337L44.0283 62.0336H26.1087L28.5256 59.2337C28.6867 59.0471 28.7752 58.8087 28.7752 58.5622V54.5139H31.1025C31.6702 54.5139 32.1301 54.0539 32.1301 53.4864C32.1301 52.9189 31.6702 52.4588 31.1025 52.4588H7.67531C4.92735 52.4588 2.63535 50.4759 2.15103 47.8662H51.7366C52.3042 47.8662 52.7642 47.4061 52.7642 46.8386C52.7642 46.2711 52.3042 45.8111 51.7366 45.8111H2.05512V13.7074C2.05512 10.6084 4.5762 8.08722 7.67531 8.08722H18.4486C19.0163 8.08722 19.4762 7.62715 19.4762 7.05966C19.4762 6.49218 19.0163 6.0321 18.4486 6.0321H7.67531C3.44315 6.0321 3.8147e-06 9.47525 3.8147e-06 13.7074V46.8386C3.8147e-06 51.0708 3.44315 54.5139 7.67531 54.5139H26.7202V58.1801L23.3938 62.0336H22.0243C20.3848 62.0336 19.0511 63.3674 19.0511 65.0068V66.0486C19.0511 67.6881 20.3848 69.0218 22.0243 69.0218H47.9757C49.6152 69.0218 50.9489 67.6881 50.9489 66.0486V65.0068C50.9489 63.3674 49.6152 62.0336 47.9757 62.0336H46.7432L43.4168 58.1801V54.5139H62.3247C66.5569 54.5139 70 51.0708 70 46.8386V13.7074C70 9.47525 66.5569 6.0321 62.3247 6.0321ZM48.8938 65.0068V66.0486C48.8938 66.5549 48.482 66.9667 47.9757 66.9667H22.0243C21.518 66.9667 21.1062 66.5549 21.1062 66.0486V65.0068C21.1062 64.5006 21.518 64.0887 22.0243 64.0887H47.9757C48.482 64.0887 48.8938 64.5006 48.8938 65.0068Z" fill="#B99862"/>
<path d="M19.4836 17.2206C20.0477 17.2708 20.5471 16.8513 20.5962 16.2859C20.9098 12.6801 22.5544 9.33795 25.227 6.87496C25.5404 6.58615 25.8653 6.31296 26.1996 6.05484L34.2123 18.1302C34.4028 18.417 34.7241 18.5895 35.0685 18.5895H49.5602C49.1806 23.9952 45.831 28.5941 41.1366 30.7609L35.2454 25.1907C35.525 24.6612 35.6841 24.0585 35.6841 23.4192C35.6841 21.3194 33.9757 19.6112 31.8761 19.6112C29.7764 19.6112 28.0681 21.3194 28.0681 23.4192C28.0681 23.9394 28.1732 24.4354 28.3629 24.8875L27.4431 25.615C26.9979 25.967 26.9224 26.6133 27.2745 27.0584C27.4773 27.3149 27.7778 27.4486 28.0812 27.4486C28.3044 27.4486 28.5294 27.3761 28.7179 27.2269L29.6394 26.4982C30.268 26.9561 31.0409 27.2271 31.8762 27.2271C32.5915 27.2271 33.2612 27.0284 33.8337 26.684L38.9842 31.5539C37.738 31.9031 36.4247 32.0906 35.0685 32.0906C28.1411 32.0906 22.1461 27.1647 20.8134 20.378C20.7041 19.8212 20.1653 19.4586 19.607 19.5676C19.0502 19.677 18.6874 20.2171 18.7968 20.7739C19.4254 23.9753 20.9631 26.8134 23.1087 29.0427L15.4264 35.118C14.7978 34.6601 14.0249 34.389 13.1895 34.389C11.0898 34.389 9.38147 36.0972 9.38147 38.197C9.38147 40.2968 11.0898 42.005 13.1895 42.005C15.2891 42.005 16.9975 40.2968 16.9975 38.197C16.9975 37.6768 16.8924 37.1808 16.7028 36.7288L24.6428 30.4496C27.5164 32.7726 31.1623 34.1457 35.0685 34.1457C37.0402 34.1457 38.9323 33.799 40.6879 33.1648L44.1364 36.4255C43.8567 36.955 43.6977 37.5577 43.6977 38.197C43.6977 40.2968 45.406 42.005 47.5056 42.005C49.6053 42.005 51.3136 40.2968 51.3136 38.197C51.3136 37.5658 51.1584 36.9705 50.8854 36.4458L58.371 29.4528C58.9477 29.8046 59.6247 30.0075 60.3482 30.0075C62.4478 30.0075 64.1562 28.2993 64.1562 26.1995C64.1562 24.0999 62.4478 22.3916 60.3482 22.3916C58.2486 22.3916 56.5402 24.0999 56.5402 26.1995C56.5402 26.8307 56.6954 27.426 56.9685 27.9506L49.4828 34.9438C48.9061 34.5919 48.2292 34.389 47.5056 34.389C46.7903 34.389 46.1206 34.5877 45.5482 34.9321L42.7291 32.2666C48.0275 29.4951 51.6522 23.9442 51.6522 17.5618C51.6522 8.41754 44.2128 0.978149 35.0685 0.978149C30.8926 0.978149 26.903 2.53565 23.8343 5.36363C20.7839 8.17462 18.9069 11.9903 18.5489 16.1078C18.4996 16.6732 18.9182 17.1715 19.4836 17.2206ZM30.1233 23.4192C30.1233 22.4526 30.9096 21.6663 31.8762 21.6663C32.8428 21.6663 33.6291 22.4526 33.6291 23.4192C33.6291 24.3857 32.8428 25.1719 31.8762 25.1719C30.9096 25.1719 30.1233 24.3857 30.1233 23.4192ZM13.1896 39.95C12.223 39.95 11.4367 39.1637 11.4367 38.1971C11.4367 37.2305 12.223 36.4443 13.1896 36.4443C14.1562 36.4443 14.9425 37.2305 14.9425 38.1971C14.9425 39.1637 14.1561 39.95 13.1896 39.95ZM60.3483 24.4468C61.3149 24.4468 62.1012 25.233 62.1012 26.1995C62.1012 27.1661 61.3149 27.9524 60.3483 27.9524C59.3818 27.9524 58.5955 27.1661 58.5955 26.1995C58.5955 25.233 59.3818 24.4468 60.3483 24.4468ZM48.7785 36.9956C48.7805 36.9979 48.7823 37.0004 48.7843 37.0026C48.7856 37.0038 48.7868 37.0049 48.788 37.0061C49.079 37.3192 49.2585 37.7371 49.2585 38.1971C49.2585 39.1637 48.4722 39.95 47.5056 39.95C46.5391 39.95 45.7528 39.1637 45.7528 38.1971C45.7528 37.7321 45.9361 37.31 46.2326 36.9959C46.233 36.9954 46.2334 36.9952 46.2338 36.9946C46.2348 36.9937 46.2355 36.9926 46.2364 36.9916C46.556 36.6553 47.0063 36.4441 47.5056 36.4441C48.0071 36.4443 48.4587 36.657 48.7785 36.9956ZM49.5602 16.5346H35.6198L27.9108 4.91685C30.0754 3.68953 32.5326 3.0334 35.0684 3.0334C42.7341 3.0334 49.0312 9.00105 49.5602 16.5346Z" fill="#B99862"/>
</svg>
