<svg width="60" height="70" viewBox="0 0 60 70" fill="none" xmlns="http://www.w3.org/2000/svg">
<path d="M30.0533 15.0879C20.1458 15.0879 12.0514 23.1822 12.0514 33.0897C12.0514 38.2701 14.3178 43.2563 18.1384 46.6235C20.9876 49.4727 20.7286 55.5597 20.6638 55.6244C20.6638 55.9482 20.7286 56.2072 20.9876 56.4662C21.1818 56.6605 21.5056 56.79 21.7646 56.79H38.2771C38.6009 56.79 38.8599 56.6605 39.0542 56.4662C39.2484 56.272 39.378 55.9482 39.378 55.6244C39.378 55.5597 39.0542 49.4727 41.9034 46.6235C41.9681 46.5587 42.0329 46.494 42.0977 46.4292C45.8534 42.9972 48.0551 38.1406 48.0551 33.0897C48.0551 23.1822 39.9607 15.0879 30.0533 15.0879ZM40.414 44.9399C40.3493 45.0046 40.2198 45.1341 40.2198 45.1989C37.6943 47.9186 37.241 52.3867 37.1763 54.5236H22.8655C22.8007 52.3867 22.3474 47.7243 19.6277 44.9399C16.1957 41.9612 14.1883 37.6226 14.1883 33.025C14.1883 24.2831 21.2466 17.2248 29.9885 17.2248C38.7304 17.2248 45.7887 24.2831 45.7887 33.025C45.7887 37.6226 43.846 41.9612 40.414 44.9399Z" fill="#B99862"/>
<path d="M29.9885 19.6853C29.4057 19.6853 28.8877 20.2033 28.8877 20.7861C28.8877 21.3689 29.4057 21.887 29.9885 21.887C36.5288 21.887 41.7739 27.1969 41.7739 33.6723C41.7739 34.2551 42.292 34.7732 42.8748 34.7732C43.4575 34.7732 43.9756 34.2551 43.9756 33.6723C44.0403 25.9665 37.7591 19.6853 29.9885 19.6853Z" fill="#B99862"/>
<path d="M37.1763 58.0205H22.8007C21.3114 58.0205 20.081 59.2509 20.081 60.7402C20.081 62.2296 21.3114 63.4599 22.8007 63.4599H37.1115C38.6657 63.3952 39.896 62.2296 39.896 60.7402C39.896 59.2509 38.6657 58.0205 37.1763 58.0205ZM37.1763 61.1935H22.8007C22.5417 61.1935 22.2827 60.9992 22.2827 60.6755C22.2827 60.3517 22.4769 60.1574 22.8007 60.1574H37.1115C37.3706 60.1574 37.6296 60.3517 37.6296 60.6755C37.6296 60.9992 37.4353 61.1935 37.1763 61.1935Z" fill="#B99862"/>
<path d="M35.0394 64.5605H24.9376C23.4483 64.5605 22.2179 65.7909 22.2179 67.2803C22.2179 68.7696 23.4483 70 24.9376 70H35.0394C36.5288 70 37.7591 68.7696 37.7591 67.2803C37.7591 65.7261 36.5288 64.5605 35.0394 64.5605ZM35.0394 67.7335H24.9376C24.6786 67.7335 24.4196 67.5393 24.4196 67.2155C24.4196 66.8917 24.6139 66.6975 24.9376 66.6975H35.0394C35.2984 66.6975 35.5574 66.8917 35.5574 67.2155C35.5574 67.5393 35.2984 67.7335 35.0394 67.7335Z" fill="#B99862"/>
<path d="M29.9885 9.71323C30.6361 9.71323 31.0893 9.19519 31.0893 8.6124V1.10083C31.0893 0.518039 30.5713 0 29.9885 0C29.4057 0 28.8877 0.518039 28.8877 1.10083V8.6124C28.8877 9.19519 29.4057 9.71323 29.9885 9.71323Z" fill="#B99862"/>
<path d="M48.3141 5.56891C47.7961 5.18038 47.1485 5.37465 46.8248 5.82793L42.6805 12.0444C42.2919 12.5624 42.4215 13.2747 42.9395 13.5985C43.1338 13.728 43.328 13.7928 43.5223 13.7928C43.9108 13.7928 44.2346 13.5985 44.4289 13.2747L48.5731 7.05828C48.9617 6.60499 48.8322 5.89269 48.3141 5.56891Z" fill="#B99862"/>
<path d="M16.8433 13.5338C17.0375 13.5338 17.2318 13.469 17.4261 13.3395C17.9441 13.0158 18.0736 12.3035 17.7498 11.7854L13.735 5.5042C13.4113 4.98616 12.699 4.85665 12.1809 5.18043C11.6629 5.5042 11.5334 6.2165 11.8572 6.73454L15.872 13.0158C16.131 13.4043 16.4547 13.5338 16.8433 13.5338Z" fill="#B99862"/>
<path d="M9.00793 20.3977L2.46769 16.8362C1.94966 16.5771 1.23735 16.7714 0.978334 17.2894C0.65456 17.8075 0.848824 18.5198 1.43162 18.7788L7.97185 22.3403C8.16612 22.4051 8.29563 22.4698 8.48989 22.4698C8.87842 22.4698 9.26695 22.2756 9.46122 21.887C9.72024 21.369 9.52597 20.6567 9.00793 20.3977Z" fill="#B99862"/>
<path d="M59.0635 17.2894C58.8044 16.7714 58.0921 16.5771 57.5741 16.8362L50.9691 20.3977C50.451 20.6567 50.2568 21.369 50.5158 21.887C50.71 22.2756 51.0986 22.4698 51.4871 22.4698C51.6814 22.4698 51.8756 22.4051 52.0052 22.3403L58.6102 18.7788C59.1282 18.5198 59.3225 17.8075 59.0635 17.2894Z" fill="#B99862"/>
</svg>
