<svg width="26" height="22" viewBox="0 0 26 22" fill="none" xmlns="http://www.w3.org/2000/svg">
<path fill-rule="evenodd" clip-rule="evenodd" d="M0.5 10.9998C0.5 10.5854 0.66462 10.1879 0.957646 9.89492C1.25067 9.6019 1.6481 9.43727 2.0625 9.43727H20.1656L13.4562 2.73103C13.1629 2.43763 12.998 2.0397 12.998 1.62478C12.998 1.20985 13.1629 0.811922 13.4562 0.518527C13.7496 0.225131 14.1476 0.0603027 14.5625 0.0603027C14.9774 0.0603027 15.3754 0.225131 15.6688 0.518527L25.0438 9.89352C25.1893 10.0387 25.3047 10.2111 25.3835 10.4009C25.4622 10.5907 25.5028 10.7943 25.5028 10.9998C25.5028 11.2053 25.4622 11.4088 25.3835 11.5986C25.3047 11.7885 25.1893 11.9609 25.0438 12.106L15.6688 21.481C15.3754 21.7744 14.9774 21.9392 14.5625 21.9392C14.1476 21.9392 13.7496 21.7744 13.4562 21.481C13.1629 21.1876 12.998 20.7897 12.998 20.3748C12.998 19.9598 13.1629 19.5619 13.4562 19.2685L20.1656 12.5623H2.0625C1.6481 12.5623 1.25067 12.3977 0.957646 12.1046C0.66462 11.8116 0.5 11.4142 0.5 10.9998Z" fill="white"/>
</svg>
