<svg width="26" height="22" viewBox="0 0 26 22" fill="none" xmlns="http://www.w3.org/2000/svg">
<path fill-rule="evenodd" clip-rule="evenodd" d="M25.5 11.0002C25.5 11.4146 25.3354 11.8121 25.0424 12.1051C24.7493 12.3981 24.3519 12.5627 23.9375 12.5627L5.83437 12.5627L12.5438 19.269C12.8371 19.5624 13.002 19.9603 13.002 20.3752C13.002 20.7901 12.8371 21.1881 12.5438 21.4815C12.2504 21.7749 11.8524 21.9397 11.4375 21.9397C11.0226 21.9397 10.6246 21.7749 10.3312 21.4815L0.956249 12.1065C0.81074 11.9613 0.695293 11.7889 0.616524 11.5991C0.537754 11.4093 0.497208 11.2057 0.497208 11.0002C0.497208 10.7947 0.537754 10.5912 0.616524 10.4014C0.695293 10.2115 0.81074 10.0391 0.956249 9.89398L10.3312 0.518978C10.6246 0.225582 11.0226 0.0607548 11.4375 0.0607548C11.8524 0.0607548 12.2504 0.225582 12.5438 0.518978C12.8371 0.812372 13.002 1.2103 13.002 1.62523C13.002 2.04015 12.8371 2.43808 12.5438 2.73148L5.83437 9.43773L23.9375 9.43773C24.3519 9.43773 24.7493 9.60234 25.0424 9.89537C25.3354 10.1884 25.5 10.5858 25.5 11.0002Z" fill="white"/>
</svg>
