<svg width="70" height="70" viewBox="0 0 70 70" fill="none" xmlns="http://www.w3.org/2000/svg">
<g clip-path="url(#clip0)">
<path d="M34.5946 55.6092C34.2213 55.6092 33.8479 55.4663 33.5621 55.1833L14.8167 36.4379C14.2683 35.8896 14.245 35.0117 14.7583 34.4342L28.8079 18.6959C38.6283 7.2071 54.6204 -0.227484 68.565 0.00876628C69.3438 0.0262663 69.9708 0.65335 69.9883 1.4321C70.3121 15.3854 62.7929 31.3688 51.275 41.2096L35.5629 55.2388C35.2888 55.4867 34.9388 55.6092 34.5946 55.6092ZM17.8529 35.35L34.65 52.1471L49.3588 39.0163C59.8763 30.0271 66.8617 15.7004 67.0775 2.92252C54.2996 3.13543 39.9758 10.1208 31.0042 20.615L17.8529 35.35Z" fill="#B99862"/>
<path d="M40.18 66.2841C40.04 66.2841 39.8971 66.2637 39.7629 66.22C39.2379 66.045 38.8063 65.6425 38.7304 65.0941L36.7296 51.1321C36.6158 50.3358 37.17 49.5979 37.9663 49.4812C38.7625 49.3558 39.5004 49.9187 39.6171 50.7179L41.1804 61.6262C46.2904 55.5158 49.1313 47.7691 49.1313 39.8708C49.1313 39.0658 49.7846 38.4125 50.5896 38.4125C51.3946 38.4125 52.0479 39.0658 52.0479 39.8708C52.0479 49.5337 48.1338 58.9925 41.3088 65.8146C41.0171 66.1062 40.5913 66.2841 40.18 66.2841Z" fill="#B99862"/>
<path d="M19.0779 33.2851C19.0108 33.2851 18.9408 33.2821 18.8708 33.2705L4.90876 31.2696C4.36042 31.1909 3.90251 30.8088 3.73042 30.2809C3.55834 29.7559 3.69834 29.1755 4.09209 28.7876C11.0133 21.8663 20.4692 17.9521 30.1321 17.9521C30.9371 17.9521 31.5904 18.6055 31.5904 19.4105C31.5904 20.2155 30.9371 20.8688 30.1321 20.8688C22.1958 20.8688 14.4083 23.7359 8.36209 28.8167L19.285 30.383C20.0813 30.4996 20.6354 31.2346 20.5217 32.0338C20.4138 32.7601 19.7896 33.2851 19.0779 33.2851Z" fill="#B99862"/>
<path d="M49.9712 27.3175C48.1017 27.3175 46.235 26.6058 44.8146 25.1854C41.9738 22.3417 41.9738 17.7158 44.8146 14.8721C47.6583 12.0283 52.2842 12.0283 55.1279 14.8721C57.9687 17.7158 57.9687 22.3417 55.1279 25.1854C53.7046 26.6087 51.8379 27.3175 49.9712 27.3175ZM49.9712 15.6567C48.8512 15.6567 47.7283 16.0825 46.8767 16.9342C45.1733 18.6404 45.1733 21.4171 46.8767 23.1233C48.5829 24.8267 51.3596 24.8237 53.0658 23.1233C54.7692 21.4171 54.7692 18.6404 53.0658 16.9342C52.2112 16.0854 51.0912 15.6567 49.9712 15.6567ZM54.0954 24.1558H54.1246H54.0954Z" fill="#B99862"/>
<path d="M1.45834 70C1.07625 70 0.705836 69.8512 0.425836 69.5741C0.0466695 69.195 -0.0933305 68.6379 0.0612528 68.1246C0.539586 66.5291 4.82417 52.43 7.945 49.3092C11.4596 45.7946 17.1792 45.7917 20.6938 49.3092C24.2083 52.8237 24.2083 58.5433 20.6938 62.0579C17.5729 65.1787 3.47375 69.4633 1.87834 69.9416C1.73834 69.9796 1.59834 70 1.45834 70ZM14.3208 49.5862C12.7575 49.5862 11.1971 50.1812 10.0071 51.3683C8.32417 53.0541 5.52417 60.5821 3.675 66.325C9.415 64.4758 16.9458 61.6758 18.6288 59.9929C21.0058 57.6158 21.0058 53.7454 18.6288 51.3683C17.4417 50.1812 15.8813 49.5862 14.3208 49.5862Z" fill="#B99862"/>
</g>
<defs>
<clipPath id="clip0">
<rect width="70" height="70" fill="white"/>
</clipPath>
</defs>
</svg>
