<svg width="30" height="28" viewBox="0 0 30 28" fill="none" xmlns="http://www.w3.org/2000/svg">
<path d="M28.9453 10.6408C28.8109 10.2236 28.5636 9.85176 28.2309 9.56642C27.8981 9.28108 27.4929 9.09337 27.0601 9.02409L20.2686 7.92036L17.1202 1.80235C16.9197 1.41287 16.6157 1.08615 16.2417 0.858049C15.8677 0.629948 15.4381 0.509277 15 0.509277C14.5619 0.509277 14.1323 0.629948 13.7583 0.858049C13.3843 1.08615 13.0803 1.41287 12.8798 1.80235L9.73142 7.92036L2.94 9.02409C2.50762 9.09446 2.10297 9.28257 1.77047 9.56779C1.43796 9.853 1.19044 10.2243 1.05507 10.6409C0.91969 11.0576 0.90169 11.5034 1.00304 11.9296C1.10439 12.3558 1.32118 12.7458 1.62961 13.0569L6.47531 17.9418L5.42648 24.7419C5.35918 25.175 5.41264 25.6183 5.58096 26.023C5.74929 26.4277 6.02597 26.7781 6.38057 27.0358C6.73518 27.2934 7.15397 27.4482 7.59088 27.4833C8.02779 27.5183 8.46591 27.4322 8.85703 27.2343L15 24.1353L21.1431 27.2343C21.5343 27.4318 21.9723 27.5176 22.409 27.4824C22.8458 27.4472 23.2644 27.2923 23.6189 27.0347C23.9733 26.7772 24.25 26.4269 24.4184 26.0225C24.5869 25.618 24.6406 25.1749 24.5737 24.7419L23.5249 17.9418L28.3706 13.0569C28.68 12.7464 28.8974 12.3564 28.9989 11.93C29.1003 11.5035 29.0818 11.0574 28.9453 10.6408ZM27.0393 11.7365L21.5273 17.2929L22.7205 25.0279C22.7353 25.1205 22.7242 25.2154 22.6883 25.3021C22.6525 25.3888 22.5934 25.4639 22.5175 25.519C22.4416 25.5741 22.3519 25.6072 22.2584 25.6145C22.1648 25.6218 22.0711 25.603 21.9876 25.5604L15 22.0352L8.01234 25.5605C7.92881 25.6032 7.8351 25.6219 7.74157 25.6146C7.64805 25.6073 7.55837 25.5743 7.48248 25.5191C7.40658 25.464 7.34744 25.3889 7.31159 25.3022C7.27575 25.2155 7.2646 25.1206 7.27939 25.028L8.47266 17.2929L2.9608 11.7364C2.89498 11.6699 2.84873 11.5866 2.82712 11.4956C2.80551 11.4045 2.80937 11.3093 2.83828 11.2203C2.86719 11.1313 2.92004 11.052 2.99103 10.9911C3.06202 10.9301 3.14842 10.8899 3.24076 10.8748L10.9658 9.61934L14.547 2.66034C14.5898 2.57709 14.6548 2.50726 14.7347 2.45851C14.8146 2.40975 14.9064 2.38396 15 2.38396C15.0936 2.38396 15.1854 2.40975 15.2653 2.45851C15.3452 2.50726 15.4102 2.57709 15.453 2.66034L19.0342 9.61934L26.7592 10.8748C26.8516 10.8899 26.938 10.9301 27.009 10.9911C27.08 11.052 27.1328 11.1313 27.1617 11.2203C27.1906 11.3093 27.1945 11.4045 27.1729 11.4956C27.1513 11.5866 27.105 11.6699 27.0392 11.7364L27.0393 11.7365Z" fill="#B99862"/>
</svg>
